<mxfile host="app.diagrams.net" modified="2021-02-22T20:40:13.067Z" agent="5.0 (Windows NT 10.0; Win64; x64) AppleWebKit/537.36 (KHTML, like Gecko) Chrome/88.0.4324.182 Safari/537.36" etag="xmrflN1IoSEXjp4tEKN6" version="14.4.2" type="github">
  <diagram id="Kzd6qc9SWuHuXQYlOQcU" name="Page-1">
    <mxGraphModel dx="2697" dy="803" grid="1" gridSize="10" guides="1" tooltips="1" connect="1" arrows="1" fold="1" page="1" pageScale="1" pageWidth="850" pageHeight="1100" math="0" shadow="0">
      <root>
        <mxCell id="OR51J7Q1JQz4mwMi_YMv-0" />
        <mxCell id="OR51J7Q1JQz4mwMi_YMv-1" parent="OR51J7Q1JQz4mwMi_YMv-0" />
        <mxCell id="HXOrBYoTKEZLP9ldYBDf-1" value="" style="edgeStyle=orthogonalEdgeStyle;rounded=0;orthogonalLoop=1;jettySize=auto;html=1;" parent="OR51J7Q1JQz4mwMi_YMv-1" source="OR51J7Q1JQz4mwMi_YMv-3" target="HXOrBYoTKEZLP9ldYBDf-0" edge="1">
          <mxGeometry relative="1" as="geometry" />
        </mxCell>
        <mxCell id="HXOrBYoTKEZLP9ldYBDf-3" value="" style="edgeStyle=orthogonalEdgeStyle;rounded=0;orthogonalLoop=1;jettySize=auto;html=1;" parent="OR51J7Q1JQz4mwMi_YMv-1" source="OR51J7Q1JQz4mwMi_YMv-3" target="HXOrBYoTKEZLP9ldYBDf-2" edge="1">
          <mxGeometry relative="1" as="geometry" />
        </mxCell>
        <mxCell id="eazAzWpYggoECvpDYvyk-34" style="edgeStyle=orthogonalEdgeStyle;rounded=0;orthogonalLoop=1;jettySize=auto;html=1;exitX=1;exitY=0.5;exitDx=0;exitDy=0;" parent="OR51J7Q1JQz4mwMi_YMv-1" source="OR51J7Q1JQz4mwMi_YMv-3" target="eazAzWpYggoECvpDYvyk-33" edge="1">
          <mxGeometry relative="1" as="geometry" />
        </mxCell>
        <mxCell id="eazAzWpYggoECvpDYvyk-36" style="edgeStyle=orthogonalEdgeStyle;rounded=0;orthogonalLoop=1;jettySize=auto;html=1;exitX=1;exitY=0.5;exitDx=0;exitDy=0;entryX=0.5;entryY=0;entryDx=0;entryDy=0;" parent="OR51J7Q1JQz4mwMi_YMv-1" source="OR51J7Q1JQz4mwMi_YMv-3" target="eazAzWpYggoECvpDYvyk-35" edge="1">
          <mxGeometry relative="1" as="geometry" />
        </mxCell>
        <mxCell id="eazAzWpYggoECvpDYvyk-38" style="edgeStyle=orthogonalEdgeStyle;rounded=0;orthogonalLoop=1;jettySize=auto;html=1;exitX=1;exitY=0.5;exitDx=0;exitDy=0;entryX=0.5;entryY=0;entryDx=0;entryDy=0;" parent="OR51J7Q1JQz4mwMi_YMv-1" source="OR51J7Q1JQz4mwMi_YMv-3" target="eazAzWpYggoECvpDYvyk-37" edge="1">
          <mxGeometry relative="1" as="geometry" />
        </mxCell>
        <mxCell id="LCuynPkq_SxRRPHgawz0-3" style="edgeStyle=orthogonalEdgeStyle;rounded=0;orthogonalLoop=1;jettySize=auto;html=1;exitX=1;exitY=0.5;exitDx=0;exitDy=0;entryX=0.5;entryY=0;entryDx=0;entryDy=0;" edge="1" parent="OR51J7Q1JQz4mwMi_YMv-1" source="OR51J7Q1JQz4mwMi_YMv-3" target="LCuynPkq_SxRRPHgawz0-0">
          <mxGeometry relative="1" as="geometry" />
        </mxCell>
        <mxCell id="LCuynPkq_SxRRPHgawz0-4" style="edgeStyle=orthogonalEdgeStyle;rounded=0;orthogonalLoop=1;jettySize=auto;html=1;exitX=1;exitY=0.5;exitDx=0;exitDy=0;entryX=0.5;entryY=0;entryDx=0;entryDy=0;" edge="1" parent="OR51J7Q1JQz4mwMi_YMv-1" source="OR51J7Q1JQz4mwMi_YMv-3" target="LCuynPkq_SxRRPHgawz0-1">
          <mxGeometry relative="1" as="geometry" />
        </mxCell>
        <mxCell id="LCuynPkq_SxRRPHgawz0-5" style="edgeStyle=orthogonalEdgeStyle;rounded=0;orthogonalLoop=1;jettySize=auto;html=1;exitX=1;exitY=0.5;exitDx=0;exitDy=0;entryX=0.5;entryY=0;entryDx=0;entryDy=0;" edge="1" parent="OR51J7Q1JQz4mwMi_YMv-1" source="OR51J7Q1JQz4mwMi_YMv-3" target="LCuynPkq_SxRRPHgawz0-2">
          <mxGeometry relative="1" as="geometry" />
        </mxCell>
        <mxCell id="OR51J7Q1JQz4mwMi_YMv-3" value="GMD" style="rounded=0;whiteSpace=wrap;html=1;" parent="OR51J7Q1JQz4mwMi_YMv-1" vertex="1">
          <mxGeometry x="560" y="20" width="120" height="60" as="geometry" />
        </mxCell>
        <mxCell id="eazAzWpYggoECvpDYvyk-1" value="" style="edgeStyle=orthogonalEdgeStyle;rounded=0;orthogonalLoop=1;jettySize=auto;html=1;" parent="OR51J7Q1JQz4mwMi_YMv-1" source="HXOrBYoTKEZLP9ldYBDf-0" target="eazAzWpYggoECvpDYvyk-0" edge="1">
          <mxGeometry relative="1" as="geometry" />
        </mxCell>
        <mxCell id="eazAzWpYggoECvpDYvyk-30" value="" style="edgeStyle=orthogonalEdgeStyle;rounded=0;orthogonalLoop=1;jettySize=auto;html=1;" parent="OR51J7Q1JQz4mwMi_YMv-1" source="HXOrBYoTKEZLP9ldYBDf-0" target="eazAzWpYggoECvpDYvyk-29" edge="1">
          <mxGeometry relative="1" as="geometry" />
        </mxCell>
        <mxCell id="eazAzWpYggoECvpDYvyk-32" style="edgeStyle=orthogonalEdgeStyle;rounded=0;orthogonalLoop=1;jettySize=auto;html=1;exitX=1;exitY=0.5;exitDx=0;exitDy=0;" parent="OR51J7Q1JQz4mwMi_YMv-1" source="HXOrBYoTKEZLP9ldYBDf-0" target="eazAzWpYggoECvpDYvyk-31" edge="1">
          <mxGeometry relative="1" as="geometry" />
        </mxCell>
        <mxCell id="HXOrBYoTKEZLP9ldYBDf-0" value="COO" style="rounded=0;whiteSpace=wrap;html=1;" parent="OR51J7Q1JQz4mwMi_YMv-1" vertex="1">
          <mxGeometry x="380" y="120" width="120" height="60" as="geometry" />
        </mxCell>
        <mxCell id="HXOrBYoTKEZLP9ldYBDf-2" value="MD Office" style="rounded=0;whiteSpace=wrap;html=1;" parent="OR51J7Q1JQz4mwMi_YMv-1" vertex="1">
          <mxGeometry x="730" y="70" width="120" height="60" as="geometry" />
        </mxCell>
        <mxCell id="eazAzWpYggoECvpDYvyk-3" value="" style="edgeStyle=orthogonalEdgeStyle;rounded=0;orthogonalLoop=1;jettySize=auto;html=1;" parent="OR51J7Q1JQz4mwMi_YMv-1" source="eazAzWpYggoECvpDYvyk-0" target="eazAzWpYggoECvpDYvyk-2" edge="1">
          <mxGeometry relative="1" as="geometry" />
        </mxCell>
        <mxCell id="eazAzWpYggoECvpDYvyk-10" style="edgeStyle=orthogonalEdgeStyle;rounded=0;orthogonalLoop=1;jettySize=auto;html=1;exitX=1;exitY=0.5;exitDx=0;exitDy=0;entryX=0.5;entryY=0;entryDx=0;entryDy=0;" parent="OR51J7Q1JQz4mwMi_YMv-1" source="eazAzWpYggoECvpDYvyk-0" target="eazAzWpYggoECvpDYvyk-8" edge="1">
          <mxGeometry relative="1" as="geometry" />
        </mxCell>
        <mxCell id="eazAzWpYggoECvpDYvyk-12" style="edgeStyle=orthogonalEdgeStyle;rounded=0;orthogonalLoop=1;jettySize=auto;html=1;exitX=0;exitY=0.5;exitDx=0;exitDy=0;" parent="OR51J7Q1JQz4mwMi_YMv-1" source="eazAzWpYggoECvpDYvyk-0" target="eazAzWpYggoECvpDYvyk-6" edge="1">
          <mxGeometry relative="1" as="geometry" />
        </mxCell>
        <mxCell id="eazAzWpYggoECvpDYvyk-13" style="edgeStyle=orthogonalEdgeStyle;rounded=0;orthogonalLoop=1;jettySize=auto;html=1;exitX=1;exitY=0.5;exitDx=0;exitDy=0;" parent="OR51J7Q1JQz4mwMi_YMv-1" source="eazAzWpYggoECvpDYvyk-0" target="eazAzWpYggoECvpDYvyk-4" edge="1">
          <mxGeometry relative="1" as="geometry" />
        </mxCell>
        <mxCell id="eazAzWpYggoECvpDYvyk-0" value="Fish Feedmill&lt;br&gt;Unit Head" style="rounded=0;whiteSpace=wrap;html=1;" parent="OR51J7Q1JQz4mwMi_YMv-1" vertex="1">
          <mxGeometry x="160" y="220" width="120" height="60" as="geometry" />
        </mxCell>
        <mxCell id="eazAzWpYggoECvpDYvyk-2" value="Operations Manager" style="whiteSpace=wrap;html=1;rounded=0;" parent="OR51J7Q1JQz4mwMi_YMv-1" vertex="1">
          <mxGeometry x="-90" y="300" width="120" height="60" as="geometry" />
        </mxCell>
        <mxCell id="eazAzWpYggoECvpDYvyk-21" value="" style="edgeStyle=orthogonalEdgeStyle;rounded=0;orthogonalLoop=1;jettySize=auto;html=1;" parent="OR51J7Q1JQz4mwMi_YMv-1" source="eazAzWpYggoECvpDYvyk-4" target="eazAzWpYggoECvpDYvyk-20" edge="1">
          <mxGeometry relative="1" as="geometry" />
        </mxCell>
        <mxCell id="eazAzWpYggoECvpDYvyk-25" style="edgeStyle=orthogonalEdgeStyle;rounded=0;orthogonalLoop=1;jettySize=auto;html=1;exitX=0.5;exitY=1;exitDx=0;exitDy=0;entryX=0.5;entryY=0;entryDx=0;entryDy=0;" parent="OR51J7Q1JQz4mwMi_YMv-1" source="eazAzWpYggoECvpDYvyk-4" target="eazAzWpYggoECvpDYvyk-23" edge="1">
          <mxGeometry relative="1" as="geometry" />
        </mxCell>
        <mxCell id="eazAzWpYggoECvpDYvyk-26" style="edgeStyle=orthogonalEdgeStyle;rounded=0;orthogonalLoop=1;jettySize=auto;html=1;exitX=0.5;exitY=1;exitDx=0;exitDy=0;entryX=0.5;entryY=0;entryDx=0;entryDy=0;" parent="OR51J7Q1JQz4mwMi_YMv-1" source="eazAzWpYggoECvpDYvyk-4" target="eazAzWpYggoECvpDYvyk-22" edge="1">
          <mxGeometry relative="1" as="geometry" />
        </mxCell>
        <mxCell id="eazAzWpYggoECvpDYvyk-28" style="edgeStyle=orthogonalEdgeStyle;rounded=0;orthogonalLoop=1;jettySize=auto;html=1;exitX=0.5;exitY=1;exitDx=0;exitDy=0;entryX=0.5;entryY=0;entryDx=0;entryDy=0;" parent="OR51J7Q1JQz4mwMi_YMv-1" source="eazAzWpYggoECvpDYvyk-4" target="eazAzWpYggoECvpDYvyk-27" edge="1">
          <mxGeometry relative="1" as="geometry" />
        </mxCell>
        <mxCell id="eazAzWpYggoECvpDYvyk-4" value="Commercial Manager" style="whiteSpace=wrap;html=1;rounded=0;" parent="OR51J7Q1JQz4mwMi_YMv-1" vertex="1">
          <mxGeometry x="280" y="300" width="120" height="60" as="geometry" />
        </mxCell>
        <mxCell id="eazAzWpYggoECvpDYvyk-6" value="Maintenance Manager" style="whiteSpace=wrap;html=1;rounded=0;" parent="OR51J7Q1JQz4mwMi_YMv-1" vertex="1">
          <mxGeometry x="50" y="300" width="120" height="60" as="geometry" />
        </mxCell>
        <mxCell id="eazAzWpYggoECvpDYvyk-15" value="" style="edgeStyle=orthogonalEdgeStyle;rounded=0;orthogonalLoop=1;jettySize=auto;html=1;" parent="OR51J7Q1JQz4mwMi_YMv-1" source="eazAzWpYggoECvpDYvyk-8" target="eazAzWpYggoECvpDYvyk-14" edge="1">
          <mxGeometry relative="1" as="geometry" />
        </mxCell>
        <mxCell id="eazAzWpYggoECvpDYvyk-16" style="edgeStyle=orthogonalEdgeStyle;rounded=0;orthogonalLoop=1;jettySize=auto;html=1;exitX=0.5;exitY=1;exitDx=0;exitDy=0;entryX=0.5;entryY=0;entryDx=0;entryDy=0;" parent="OR51J7Q1JQz4mwMi_YMv-1" source="eazAzWpYggoECvpDYvyk-8" target="eazAzWpYggoECvpDYvyk-17" edge="1">
          <mxGeometry relative="1" as="geometry">
            <mxPoint x="580" y="400" as="targetPoint" />
          </mxGeometry>
        </mxCell>
        <mxCell id="eazAzWpYggoECvpDYvyk-8" value="Admin Manager" style="whiteSpace=wrap;html=1;rounded=0;" parent="OR51J7Q1JQz4mwMi_YMv-1" vertex="1">
          <mxGeometry x="590" y="290" width="120" height="60" as="geometry" />
        </mxCell>
        <mxCell id="eazAzWpYggoECvpDYvyk-14" value="facility management" style="whiteSpace=wrap;html=1;rounded=0;" parent="OR51J7Q1JQz4mwMi_YMv-1" vertex="1">
          <mxGeometry x="520" y="400" width="120" height="60" as="geometry" />
        </mxCell>
        <mxCell id="eazAzWpYggoECvpDYvyk-17" value="Unit HR" style="whiteSpace=wrap;html=1;rounded=0;" parent="OR51J7Q1JQz4mwMi_YMv-1" vertex="1">
          <mxGeometry x="660" y="400" width="120" height="60" as="geometry" />
        </mxCell>
        <mxCell id="eazAzWpYggoECvpDYvyk-20" value="Accounts" style="whiteSpace=wrap;html=1;rounded=0;" parent="OR51J7Q1JQz4mwMi_YMv-1" vertex="1">
          <mxGeometry x="280" y="470" width="120" height="60" as="geometry" />
        </mxCell>
        <mxCell id="eazAzWpYggoECvpDYvyk-22" value="Logistics" style="rounded=0;whiteSpace=wrap;html=1;" parent="OR51J7Q1JQz4mwMi_YMv-1" vertex="1">
          <mxGeometry x="410" y="470" width="120" height="60" as="geometry" />
        </mxCell>
        <mxCell id="eazAzWpYggoECvpDYvyk-23" value="Weighbridge&lt;br&gt;Manager" style="rounded=0;whiteSpace=wrap;html=1;" parent="OR51J7Q1JQz4mwMi_YMv-1" vertex="1">
          <mxGeometry x="150" y="470" width="120" height="60" as="geometry" />
        </mxCell>
        <mxCell id="eazAzWpYggoECvpDYvyk-27" value="Stores Manager" style="rounded=0;whiteSpace=wrap;html=1;" parent="OR51J7Q1JQz4mwMi_YMv-1" vertex="1">
          <mxGeometry x="20" y="470" width="120" height="60" as="geometry" />
        </mxCell>
        <mxCell id="eazAzWpYggoECvpDYvyk-29" value="Hatchery&lt;br&gt;Unit Head" style="whiteSpace=wrap;html=1;rounded=0;" parent="OR51J7Q1JQz4mwMi_YMv-1" vertex="1">
          <mxGeometry x="820" y="220" width="120" height="60" as="geometry" />
        </mxCell>
        <mxCell id="eazAzWpYggoECvpDYvyk-54" value="" style="edgeStyle=orthogonalEdgeStyle;rounded=0;orthogonalLoop=1;jettySize=auto;html=1;" parent="OR51J7Q1JQz4mwMi_YMv-1" source="eazAzWpYggoECvpDYvyk-31" target="eazAzWpYggoECvpDYvyk-53" edge="1">
          <mxGeometry relative="1" as="geometry" />
        </mxCell>
        <mxCell id="eazAzWpYggoECvpDYvyk-57" style="edgeStyle=orthogonalEdgeStyle;rounded=0;orthogonalLoop=1;jettySize=auto;html=1;exitX=0.5;exitY=1;exitDx=0;exitDy=0;entryX=0.5;entryY=0;entryDx=0;entryDy=0;" parent="OR51J7Q1JQz4mwMi_YMv-1" source="eazAzWpYggoECvpDYvyk-31" target="eazAzWpYggoECvpDYvyk-56" edge="1">
          <mxGeometry relative="1" as="geometry" />
        </mxCell>
        <mxCell id="eazAzWpYggoECvpDYvyk-61" style="edgeStyle=orthogonalEdgeStyle;rounded=0;orthogonalLoop=1;jettySize=auto;html=1;exitX=0.5;exitY=1;exitDx=0;exitDy=0;" parent="OR51J7Q1JQz4mwMi_YMv-1" source="eazAzWpYggoECvpDYvyk-31" target="eazAzWpYggoECvpDYvyk-60" edge="1">
          <mxGeometry relative="1" as="geometry" />
        </mxCell>
        <mxCell id="eazAzWpYggoECvpDYvyk-31" value="Fish School&lt;br&gt;Head" style="rounded=0;whiteSpace=wrap;html=1;" parent="OR51J7Q1JQz4mwMi_YMv-1" vertex="1">
          <mxGeometry x="1040" y="220" width="120" height="60" as="geometry" />
        </mxCell>
        <mxCell id="eazAzWpYggoECvpDYvyk-33" value="Distribution Company&lt;br&gt;CEO" style="rounded=0;whiteSpace=wrap;html=1;" parent="OR51J7Q1JQz4mwMi_YMv-1" vertex="1">
          <mxGeometry x="1430" y="120" width="120" height="60" as="geometry" />
        </mxCell>
        <mxCell id="eazAzWpYggoECvpDYvyk-50" style="edgeStyle=orthogonalEdgeStyle;rounded=0;orthogonalLoop=1;jettySize=auto;html=1;exitX=0.5;exitY=1;exitDx=0;exitDy=0;entryX=0.5;entryY=0;entryDx=0;entryDy=0;" parent="OR51J7Q1JQz4mwMi_YMv-1" source="eazAzWpYggoECvpDYvyk-35" target="eazAzWpYggoECvpDYvyk-49" edge="1">
          <mxGeometry relative="1" as="geometry" />
        </mxCell>
        <mxCell id="eazAzWpYggoECvpDYvyk-35" value="CTO" style="rounded=0;whiteSpace=wrap;html=1;" parent="OR51J7Q1JQz4mwMi_YMv-1" vertex="1">
          <mxGeometry x="1580" y="120" width="120" height="60" as="geometry" />
        </mxCell>
        <mxCell id="eazAzWpYggoECvpDYvyk-40" value="" style="edgeStyle=orthogonalEdgeStyle;rounded=0;orthogonalLoop=1;jettySize=auto;html=1;" parent="OR51J7Q1JQz4mwMi_YMv-1" source="eazAzWpYggoECvpDYvyk-37" target="eazAzWpYggoECvpDYvyk-39" edge="1">
          <mxGeometry relative="1" as="geometry" />
        </mxCell>
        <mxCell id="eazAzWpYggoECvpDYvyk-42" value="" style="edgeStyle=orthogonalEdgeStyle;rounded=0;orthogonalLoop=1;jettySize=auto;html=1;" parent="OR51J7Q1JQz4mwMi_YMv-1" source="eazAzWpYggoECvpDYvyk-37" target="eazAzWpYggoECvpDYvyk-41" edge="1">
          <mxGeometry relative="1" as="geometry" />
        </mxCell>
        <mxCell id="eazAzWpYggoECvpDYvyk-51" style="edgeStyle=orthogonalEdgeStyle;rounded=0;orthogonalLoop=1;jettySize=auto;html=1;exitX=1;exitY=0.5;exitDx=0;exitDy=0;entryX=0.5;entryY=0;entryDx=0;entryDy=0;" parent="OR51J7Q1JQz4mwMi_YMv-1" source="eazAzWpYggoECvpDYvyk-37" target="eazAzWpYggoECvpDYvyk-52" edge="1">
          <mxGeometry relative="1" as="geometry">
            <mxPoint x="2170" y="210" as="targetPoint" />
          </mxGeometry>
        </mxCell>
        <mxCell id="eazAzWpYggoECvpDYvyk-37" value="CFO" style="rounded=0;whiteSpace=wrap;html=1;" parent="OR51J7Q1JQz4mwMi_YMv-1" vertex="1">
          <mxGeometry x="1740" y="120" width="120" height="60" as="geometry" />
        </mxCell>
        <mxCell id="LCuynPkq_SxRRPHgawz0-7" value="" style="edgeStyle=orthogonalEdgeStyle;rounded=0;orthogonalLoop=1;jettySize=auto;html=1;" edge="1" parent="OR51J7Q1JQz4mwMi_YMv-1" source="eazAzWpYggoECvpDYvyk-39" target="LCuynPkq_SxRRPHgawz0-6">
          <mxGeometry relative="1" as="geometry" />
        </mxCell>
        <mxCell id="eazAzWpYggoECvpDYvyk-39" value="Treasury manager" style="whiteSpace=wrap;html=1;rounded=0;" parent="OR51J7Q1JQz4mwMi_YMv-1" vertex="1">
          <mxGeometry x="1740" y="220" width="120" height="60" as="geometry" />
        </mxCell>
        <mxCell id="eazAzWpYggoECvpDYvyk-47" value="" style="edgeStyle=orthogonalEdgeStyle;rounded=0;orthogonalLoop=1;jettySize=auto;html=1;" parent="OR51J7Q1JQz4mwMi_YMv-1" source="eazAzWpYggoECvpDYvyk-41" target="eazAzWpYggoECvpDYvyk-46" edge="1">
          <mxGeometry relative="1" as="geometry" />
        </mxCell>
        <mxCell id="eazAzWpYggoECvpDYvyk-48" style="edgeStyle=orthogonalEdgeStyle;rounded=0;orthogonalLoop=1;jettySize=auto;html=1;exitX=1;exitY=0.5;exitDx=0;exitDy=0;entryX=0.5;entryY=0;entryDx=0;entryDy=0;" parent="OR51J7Q1JQz4mwMi_YMv-1" source="eazAzWpYggoECvpDYvyk-41" target="eazAzWpYggoECvpDYvyk-44" edge="1">
          <mxGeometry relative="1" as="geometry" />
        </mxCell>
        <mxCell id="eazAzWpYggoECvpDYvyk-41" value="FP&amp;amp;A Manager" style="whiteSpace=wrap;html=1;rounded=0;" parent="OR51J7Q1JQz4mwMi_YMv-1" vertex="1">
          <mxGeometry x="1880" y="220" width="120" height="60" as="geometry" />
        </mxCell>
        <mxCell id="eazAzWpYggoECvpDYvyk-44" value="Financial Analyst" style="rounded=0;whiteSpace=wrap;html=1;" parent="OR51J7Q1JQz4mwMi_YMv-1" vertex="1">
          <mxGeometry x="2020" y="280" width="120" height="60" as="geometry" />
        </mxCell>
        <mxCell id="eazAzWpYggoECvpDYvyk-46" value="Accountants" style="whiteSpace=wrap;html=1;rounded=0;" parent="OR51J7Q1JQz4mwMi_YMv-1" vertex="1">
          <mxGeometry x="1880" y="320" width="120" height="60" as="geometry" />
        </mxCell>
        <mxCell id="eazAzWpYggoECvpDYvyk-49" value="IT Manager" style="rounded=0;whiteSpace=wrap;html=1;" parent="OR51J7Q1JQz4mwMi_YMv-1" vertex="1">
          <mxGeometry x="1580" y="220" width="120" height="60" as="geometry" />
        </mxCell>
        <mxCell id="eazAzWpYggoECvpDYvyk-52" value="Tax Department" style="rounded=0;whiteSpace=wrap;html=1;" parent="OR51J7Q1JQz4mwMi_YMv-1" vertex="1">
          <mxGeometry x="2160" y="220" width="120" height="60" as="geometry" />
        </mxCell>
        <mxCell id="eazAzWpYggoECvpDYvyk-53" value="Teachers" style="rounded=0;whiteSpace=wrap;html=1;" parent="OR51J7Q1JQz4mwMi_YMv-1" vertex="1">
          <mxGeometry x="970" y="320" width="120" height="60" as="geometry" />
        </mxCell>
        <mxCell id="eazAzWpYggoECvpDYvyk-56" value="Candidate Sourcing specialist" style="rounded=0;whiteSpace=wrap;html=1;" parent="OR51J7Q1JQz4mwMi_YMv-1" vertex="1">
          <mxGeometry x="1110" y="320" width="120" height="60" as="geometry" />
        </mxCell>
        <mxCell id="eazAzWpYggoECvpDYvyk-60" value="Accounts/Payroll" style="rounded=0;whiteSpace=wrap;html=1;" parent="OR51J7Q1JQz4mwMi_YMv-1" vertex="1">
          <mxGeometry x="1240" y="320" width="120" height="60" as="geometry" />
        </mxCell>
        <mxCell id="LCuynPkq_SxRRPHgawz0-0" value="Branding Team" style="rounded=0;whiteSpace=wrap;html=1;" vertex="1" parent="OR51J7Q1JQz4mwMi_YMv-1">
          <mxGeometry x="2320" y="130" width="120" height="60" as="geometry" />
        </mxCell>
        <mxCell id="LCuynPkq_SxRRPHgawz0-1" value="Corporate Sales" style="rounded=0;whiteSpace=wrap;html=1;" vertex="1" parent="OR51J7Q1JQz4mwMi_YMv-1">
          <mxGeometry x="2460" y="130" width="120" height="60" as="geometry" />
        </mxCell>
        <mxCell id="LCuynPkq_SxRRPHgawz0-2" value="Legal/Company Secretary" style="rounded=0;whiteSpace=wrap;html=1;" vertex="1" parent="OR51J7Q1JQz4mwMi_YMv-1">
          <mxGeometry x="2600" y="130" width="120" height="60" as="geometry" />
        </mxCell>
        <mxCell id="LCuynPkq_SxRRPHgawz0-6" value="Accountants" style="whiteSpace=wrap;html=1;rounded=0;" vertex="1" parent="OR51J7Q1JQz4mwMi_YMv-1">
          <mxGeometry x="1740" y="320" width="120" height="60" as="geometry" />
        </mxCell>
      </root>
    </mxGraphModel>
  </diagram>
</mxfile>
